<svg xmlns="http://www.w3.org/2000/svg" viewBox="0 0 256 256">
  <rect width="256" height="256" rx="56" fill="#25D366"/>
  <path fill="white" d="M188.5 67.5C172.7 51.7 151.6 43 129.2 43c-46.3 0-83.9 37.7-83.9 84 0 14.8 3.9 29.2 11.2 41.9L44.7 213l45.3-11.9c12.2 6.7 25.9 10.2 39.8 10.2h0c46.3 0 83.9-37.7 83.9-84 0-22.4-8.7-43.5-24.4-59.3L188.5 67.5zM129.2 197.1c-12.4 0-24.6-3.3-35.2-9.6L91.5 186l-26.8 7 7.2-26.1-1.7-2.7c-6.9-11-10.6-23.8-10.6-37 0-38.5 31.4-69.9 69.9-69.9 18.7 0 36.2 7.3 49.4 20.5 13.2 13.2 20.5 30.8 20.5 49.5 0 38.5-31.4 69.9-69.9 69.9zm38.3-52.3c-2.1-1-12.4-6.1-14.3-6.8-1.9-.7-3.3-1-4.7 1-1.4 2.1-5.4 6.8-6.6 8.2-1.2 1.4-2.4 1.6-4.5.5-2.1-1-8.8-3.3-16.8-10.4-6.2-5.5-10.4-12.4-11.6-14.5-1.2-2.1-.1-3.2.9-4.3 1-1 2.1-2.4 3.1-3.6 1-1.2 1.4-2.1 2.1-3.5.7-1.4.3-2.6-.2-3.6-.5-1-4.7-11.3-6.4-15.5-1.7-4.1-3.4-3.5-4.7-3.6-1.2-.1-2.6-.1-4-.1s-3.6.5-5.5 2.6c-1.9 2.1-7.2 7.1-7.2 17.3 0 10.2 7.4 20.1 8.4 21.5 1 1.4 14.6 22.3 35.4 31.3 4.9 2.1 8.8 3.4 11.8 4.4 4.9 1.6 9.5 1.3 13 .8 4-.6 12.4-5.1 14.1-10 1.7-4.9 1.7-9.2 1.2-10-.5-.9-1.8-1.4-3.9-2.5z"/>
</svg>
